<svg width="12" height="14" viewBox="0 0 12 14" fill="none" xmlns="http://www.w3.org/2000/svg">
<path d="M9.33341 5.00016V3.66683C9.33341 2.78277 8.98222 1.93493 8.3571 1.30981C7.73198 0.684686 6.88414 0.333496 6.00008 0.333496C5.11603 0.333496 4.26818 0.684686 3.64306 1.30981C3.01794 1.93493 2.66675 2.78277 2.66675 3.66683V5.00016C2.13631 5.00016 1.62761 5.21088 1.25253 5.58595C0.877462 5.96102 0.666748 6.46973 0.666748 7.00016V11.6668C0.666748 12.1973 0.877462 12.706 1.25253 13.081C1.62761 13.4561 2.13631 13.6668 2.66675 13.6668H9.33341C9.86385 13.6668 10.3726 13.4561 10.7476 13.081C11.1227 12.706 11.3334 12.1973 11.3334 11.6668V7.00016C11.3334 6.46973 11.1227 5.96102 10.7476 5.58595C10.3726 5.21088 9.86385 5.00016 9.33341 5.00016ZM4.00008 3.66683C4.00008 3.1364 4.21079 2.62769 4.58587 2.25262C4.96094 1.87754 5.46965 1.66683 6.00008 1.66683C6.53051 1.66683 7.03922 1.87754 7.41429 2.25262C7.78937 2.62769 8.00008 3.1364 8.00008 3.66683V5.00016H4.00008V3.66683ZM10.0001 11.6668C10.0001 11.8436 9.92984 12.0132 9.80482 12.1382C9.67979 12.2633 9.51023 12.3335 9.33341 12.3335H2.66675C2.48994 12.3335 2.32037 12.2633 2.19534 12.1382C2.07032 12.0132 2.00008 11.8436 2.00008 11.6668V7.00016C2.00008 6.82335 2.07032 6.65378 2.19534 6.52876C2.32037 6.40373 2.48994 6.3335 2.66675 6.3335H9.33341C9.51023 6.3335 9.67979 6.40373 9.80482 6.52876C9.92984 6.65378 10.0001 6.82335 10.0001 7.00016V11.6668Z" fill="white"/>
</svg>
